<svg xmlns="http://www.w3.org/2000/svg" width="158" height="45" fill="none"><path fill="#387C43" fill-rule="evenodd" d="M21.897 4.53c9.093.744 16.24 8.349 16.24 17.62 0 9.272-7.147 16.876-16.24 17.62 8.771-.903 15.017-9.33 15.066-17.62.042-7.066-5.733-15.299-15.066-16.268 16.58 2.482 17.36 26.685 0 27.992v5.895c8.348-.931 15.536-8.349 15.536-17.62 0-9.272-6.974-16.013-15.536-16.944V4.53Zm0 1.353c16.335 3.938 16.208 25.689 0 27.451a11.304 11.304 0 0 0 9.385-8.045h-9.377v-6.343h9.358a11.303 11.303 0 0 0-9.366-7.98V5.883ZM19.08 39.78C9.932 39.09 2.724 31.46 2.724 22.15c0-9.31 7.206-16.938 16.353-17.629-8.77.905-15.014 9.331-15.064 17.62-.042 7.065 5.733 15.298 15.066 16.267v.676c-8.56-.93-15.536-7.672-15.536-16.944 0-9.27 7.187-16.688 15.533-17.619h.002v5.736c-17.36 1.307-16.58 25.669 0 28.151v1.372h.002Zm0-28.982c-16.207 1.762-16.335 23.672 0 27.61v-5.06c-5.601-.665-9.944-5.425-9.944-11.198 0-5.773 4.343-10.531 9.944-11.198v-.154ZM48.617 16.372v2.65c0 1.328-.584 1.803-1.51 1.803-.927 0-1.511-.479-1.511-1.802V9.003c0-1.323.584-1.829 1.51-1.829.927 0 1.51.503 1.51 1.83v1.988h2.757V9.19c0-2.97-1.484-4.667-4.348-4.667-2.861 0-4.347 1.697-4.347 4.667v9.65c0 2.969 1.483 4.666 4.347 4.666 2.861 0 4.348-1.697 4.348-4.667v-2.464h-2.756v-.003Zm3.682-8.987h3.048v15.904h2.916V7.385h3.047V4.734H52.3v2.65Zm16.753-2.651h-4.267l-2.97 18.555h2.679l.502-3.367h3.577l.503 3.367h2.942L69.052 4.734Zm-2.28 3.289 1.404 9.384h-2.81l1.405-9.384Zm5.779 15.293h.451c2.916 0 4.134-1.324 4.243-4.718l.318-11.213h2.546v15.904h2.97V4.734h-8.244l-.479 14.02c-.054 1.725-.478 1.908-1.802 1.908v2.654h-.003Zm17.044-.027c2.916 0 4.348-1.616 4.348-4.585V16.29c0-2.97-1.432-4.586-4.348-4.586h-1.378V4.734h-2.915v18.555h4.293Zm-1.378-2.65v-6.283h1.378c.927 0 1.432.424 1.432 1.748v2.783c0 1.327-.502 1.748-1.432 1.748h-1.378v.003Zm7.104-4.002v2.2c0 2.969 1.483 4.666 4.347 4.666 2.865 0 4.348-1.697 4.348-4.667V9.187c0-2.97-1.483-4.667-4.348-4.667-2.864 0-4.293 1.697-4.293 4.667v1.565h2.705V9.002c0-1.323.583-1.829 1.51-1.829s1.51.503 1.51 1.83v3.366h-2.677v2.651h2.677v4.002c0 1.326-.583 1.802-1.51 1.802s-1.51-.479-1.51-1.802v-2.386h-2.76Zm13.518-1.3h3.312v7.952h2.97V4.734h-2.97v7.952h-3.312V4.734h-2.916v18.555h2.916v-7.952Zm11.319-7.952h5.036V4.734h-7.952v18.555h7.952v-2.65h-5.036v-5.434h4.001v-2.651h-4.001v-5.17Zm11.132-2.651h-4.294v18.555h2.916v-6.971h1.378c2.915 0 4.347-1.616 4.347-4.586V9.32c0-2.966-1.432-4.585-4.347-4.585Zm0 2.65c.926 0 1.432.425 1.432 1.749v2.783c0 1.324-.502 1.748-1.432 1.748h-1.378V7.382h1.378v.003Zm8.641 15.905V7.385h4.772V4.734h-7.688v18.555h2.916Zm9.408-14.286c0-1.323.584-1.829 1.51-1.829.927 0 1.511.503 1.511 1.83v10.019c0 1.326-.584 1.829-1.511 1.829-.926 0-1.51-.503-1.51-1.83V9.004Zm-2.915 9.833c0 2.97 1.564 4.667 4.425 4.667 2.862 0 4.426-1.697 4.426-4.667V9.187c0-2.97-1.564-4.667-4.426-4.667-2.861 0-4.425 1.697-4.425 4.667v9.65Z" clip-rule="evenodd"/><path fill="#979897" fill-rule="evenodd" d="M93.108 28.93h-1.781l-.775 3.704-.404 2.514-.527-2.53-.93-3.688H87l2.358 8.334-.015.091c-.142.787-.638.942-1.504.882v1.511c2.374.156 3.037-.816 3.442-2.761l1.827-8.057Zm3.224 0h-2.51v10.803h1.705v-4.06h.805c1.706 0 2.541-.943 2.541-2.67v-1.406c.004-1.725-.835-2.667-2.54-2.667Zm0 1.542c.542 0 .836.247.836 1.018v1.622c0 .771-.294 1.018-.836 1.018h-.805v-3.658h.805Zm7.116-1.542h-2.495l-1.736 10.803h1.564l.294-1.96h2.094l.294 1.96h1.721l-1.736-10.803Zm-1.332 1.915.821 5.462h-1.645l.824-5.462Zm3.381 8.904h.263c1.705 0 2.419-.772 2.48-2.747l.187-6.53h1.488v9.261h1.736V28.93h-4.823l-.278 8.163c-.031 1.003-.279 1.113-1.053 1.113v1.542Z" clip-rule="evenodd"/><path fill="#979897" d="M117 34h38v1h-38zM43 34h38v1H43z"/><path fill="#B7B7B7" fill-rule="evenodd" d="M19.085 39.759c-9.092-.745-16.24-8.349-16.24-17.62 0-9.272 7.148-16.876 16.24-17.62v5.896V4.52C10.738 5.451 3.55 12.868 3.55 22.14c0 9.271 6.974 16.013 15.536 16.944v.675Zm0-1.353c-16.334-3.938-16.207-25.689 0-27.451A11.304 11.304 0 0 0 9.701 19s-.58 1.213-.58 3.059c0 1.845.598 3.283.598 3.283a11.302 11.302 0 0 0 9.366 7.981v5.083ZM21.899 4.504c9.092.744 16.24 8.348 16.24 17.62 0 9.271-7.148 16.875-16.24 17.62v-5.896 5.895c8.347-.931 15.535-8.349 15.535-17.62 0-9.272-6.973-16.013-15.535-16.944v-.675Zm0 1.353c16.334 3.938 16.207 25.689 0 27.451a11.304 11.304 0 0 0 9.384-8.045h-9.377V18.92h9.359a11.303 11.303 0 0 0-9.366-7.98V5.857Z" clip-rule="evenodd"/></svg>